<svg xmlns="http://www.w3.org/2000/svg" viewBox="0 0 100 100"><path d="M98.957 65.355h-3.378V47.372a6.739 6.739 0 0 0-6.755-6.755h-6.3L69.563 26.011a9.173 9.173 0 0 0-6.938-3.286H46.741a4.481 4.481 0 0 0-4.473 4.475l-.456 13.51H11.323a6.739 6.739 0 0 0-6.755 6.755v17.89H1.19A1.055 1.055 0 0 0 .1 66.451v2.282a1.054 1.054 0 0 0 1.1 1.095h20.438a13.419 13.419 0 0 0 26.838 0H61.9a13.419 13.419 0 0 0 26.838 0h10.036a1.055 1.055 0 0 0 1.1-1.095v-2.282a.881.881 0 0 0-.917-1.096zM46.741 27.2h15.884a4.516 4.516 0 0 1 3.469 1.643l10.772 11.774H46.285zM35.057 78.774A8.946 8.946 0 1 1 44 69.828a8.96 8.96 0 0 1-8.946 8.946zm40.348 0a8.946 8.946 0 1 1 8.946-8.946 8.96 8.96 0 0 1-8.946 8.946zm15.7-13.419H88a13.344 13.344 0 0 0-16.98-8.216 13.564 13.564 0 0 0-8.215 8.216H47.654a13.343 13.343 0 0 0-16.979-8.216 13.568 13.568 0 0 0-8.216 8.216H9.041V47.372a2.26 2.26 0 0 1 2.282-2.282h77.5a2.26 2.26 0 0 1 2.282 2.282z"/></svg>