<?xml version="1.0" encoding="iso-8859-1"?>
<!-- Generator: Adobe Illustrator 19.0.0, SVG Export Plug-In . SVG Version: 6.00 Build 0)  -->
<svg version="1.1" id="Layer_1" xmlns="http://www.w3.org/2000/svg" xmlns:xlink="http://www.w3.org/1999/xlink" x="0px" y="0px"
	 viewBox="0 0 512 512" style="enable-background:new 0 0 512 512;" xml:space="preserve">
<g>
	<g>
		<path d="M256,0C114.62,0,0,114.611,0,256c0,141.38,114.62,256,256,256s256-114.62,256-256C512,114.611,397.38,0,256,0z
			 M478.473,197.069l-137.122,33.05c-0.196-0.64-0.384-1.271-0.589-1.894l129.877-55.339
			C473.694,180.745,476.279,188.817,478.473,197.069z M294.161,29.03C366.37,41.148,427.264,86.793,460.126,149.53l-130.475,55.595
			c-11.136-16.085-27.511-28.015-46.541-34.091L294.161,29.03z M320,256c0,35.285-28.715,64-64,64s-64-28.715-64-64
			c0-35.294,28.715-64,64-64S320,220.706,320,256z M256,25.6c4.292,0,8.482,0.41,12.723,0.649l-10.923,140.339
			c-0.614-0.017-1.178-0.188-1.801-0.188c-0.077,0-0.154,0.026-0.23,0.026L243.311,26.249C247.535,26.01,251.716,25.6,256,25.6z
			 M217.856,29.03l12.578,141.525c-19.166,5.743-35.644,17.459-47.053,33.323L51.866,149.547
			C84.727,86.793,145.63,41.139,217.856,29.03z M41.361,172.877l130.338,53.854c-0.213,0.623-0.384,1.263-0.589,1.894L33.527,197.06
			C35.721,188.809,38.306,180.736,41.361,172.877z M25.6,256c0-11.529,1.126-22.767,2.773-33.843l138.197,32.145
			c-0.009,0.58-0.171,1.118-0.171,1.698c0,19.9,6.707,38.11,17.69,52.983L91.75,417.289C50.893,375.697,25.6,318.771,25.6,256z
			 M110.652,434.552l91.511-107.349c0.538,0.401,1.007,0.888,1.553,1.28l-72.439,120.943
			C124.143,444.809,117.214,439.91,110.652,434.552z M256,486.4c-36.83,0-71.543-8.909-102.46-24.337l72.977-121.83
			c9.276,3.251,19.098,5.367,29.483,5.367c9.882,0,19.226-1.988,28.117-4.941l74.496,121.327
			C327.671,477.466,292.898,486.4,256,486.4z M380.86,449.348L307.2,329.387c0.555-0.393,1.015-0.896,1.562-1.289l92.715,106.368
			C394.914,439.825,387.994,444.723,380.86,449.348z M420.369,417.161l-93.346-107.093C338.509,295.006,345.6,276.412,345.6,256
			c0-0.205-0.06-0.384-0.06-0.589l138.086-33.28c1.638,11.085,2.773,22.332,2.773,33.869
			C486.4,318.711,461.15,375.578,420.369,417.161z"/>
	</g>
</g>
<g>
	<g>
		<path d="M256,217.6c-21.171,0-38.4,17.229-38.4,38.4s17.229,38.4,38.4,38.4s38.4-17.229,38.4-38.4S277.171,217.6,256,217.6z
			 M256,268.8c-7.049,0-12.8-5.734-12.8-12.8c0-7.066,5.751-12.8,12.8-12.8s12.8,5.734,12.8,12.8
			C268.8,263.066,263.049,268.8,256,268.8z"/>
	</g>
</g>
<g>
</g>
<g>
</g>
<g>
</g>
<g>
</g>
<g>
</g>
<g>
</g>
<g>
</g>
<g>
</g>
<g>
</g>
<g>
</g>
<g>
</g>
<g>
</g>
<g>
</g>
<g>
</g>
<g>
</g>
</svg>
